<svg width="231" height="231" viewBox="0 0 231 231" fill="none" xmlns="http://www.w3.org/2000/svg">
<circle cx="115.5" cy="115.5" r="115.5" fill="#7452FF"/>
<path d="M89.0762 180.054C88.0097 180.038 87.4847 179.496 87.5012 178.429L87.8457 156.224C87.8509 155.883 87.8772 155.563 87.9245 155.265C88.0152 154.925 88.2121 154.608 88.5154 154.314L96.9386 147.724L96.9733 145.484L88.5675 138.569C88.2735 138.266 88.0862 137.964 88.0055 137.664C87.9681 137.322 87.9521 136.981 87.9574 136.64L88.3514 111.235C88.368 110.168 88.9095 109.643 89.9761 109.66L110.198 109.973C111.264 109.99 111.789 110.531 111.773 111.598L111.413 134.763L116.789 134.846L117.148 111.681C117.165 110.615 117.706 110.09 118.773 110.106L138.994 110.42C140.061 110.436 140.586 110.978 140.569 112.044L140.175 137.449C140.17 137.791 140.143 138.132 140.095 138.472C140.048 138.77 139.851 139.066 139.505 139.359L130.889 146.01L130.854 148.25L139.517 155.105C139.855 155.324 140.043 155.626 140.079 156.01C140.117 156.352 140.133 156.694 140.127 157.035L139.783 179.24C139.766 180.307 139.225 180.832 138.158 180.815L117.873 180.501C116.806 180.484 116.281 179.943 116.298 178.876L116.607 158.911L111.296 158.828L110.986 178.794C110.97 179.86 110.428 180.385 109.362 180.369L89.0762 180.054Z" fill="white"/>
<path d="M104.072 106C103.091 106 102.237 105.637 101.512 104.912L88.712 92.112C88.0293 91.4293 87.688 90.576 87.688 89.552V52.048C87.688 51.024 88.0293 50.1707 88.712 49.488L101.512 36.688C102.237 35.9627 103.091 35.6 104.072 35.6H123.528C124.509 35.6 125.363 35.9627 126.088 36.688L138.888 49.488C139.571 50.1707 139.912 51.024 139.912 52.048V89.552C139.912 90.576 139.571 91.4293 138.888 92.112L126.088 104.912C125.363 105.637 124.509 106 123.528 106H104.072ZM113.672 84.688H113.8C114.653 84.688 115.315 84.4533 115.784 83.984C116.253 83.5147 116.488 82.8533 116.488 82V59.6C116.488 58.7467 116.253 58.0853 115.784 57.616C115.315 57.1467 114.653 56.912 113.8 56.912H113.608C112.755 56.912 112.115 57.1467 111.688 57.616C111.304 58.0853 111.112 58.7467 111.112 59.6V82C111.112 82.8533 111.325 83.5147 111.752 83.984C112.221 84.4533 112.861 84.688 113.672 84.688Z" fill="white"/>
</svg>
