<svg width="54" height="146" viewBox="0 0 54 146" fill="none" xmlns="http://www.w3.org/2000/svg">
<path d="M1.79178 144.454C0.725245 144.438 0.200247 143.896 0.21679 142.829L0.5612 120.624C0.566493 120.283 0.592787 119.963 0.64008 119.665C0.730696 119.325 0.927636 119.008 1.2309 118.714L9.65411 112.124L9.68885 109.884L1.28309 102.969C0.989087 102.666 0.801742 102.364 0.72105 102.064C0.683682 101.722 0.667645 101.381 0.672939 101.04L1.06698 75.6346C1.08352 74.568 1.62506 74.043 2.6916 74.0596L22.9132 74.3732C23.9797 74.3898 24.5047 74.9313 24.4882 75.9978L24.1289 99.163L29.5042 99.2464L29.8635 76.0812C29.8801 75.0147 30.4216 74.4897 31.4881 74.5062L51.7097 74.8198C52.7762 74.8364 53.3012 75.3779 53.2847 76.4445L52.8907 101.849C52.8854 102.191 52.8587 102.532 52.8108 102.872C52.7635 103.17 52.5669 103.466 52.221 103.759L43.6048 110.41L43.57 112.65L52.2328 119.505C52.5708 119.724 52.7581 120.026 52.7948 120.41C52.8322 120.752 52.8482 121.094 52.8429 121.435L52.4985 143.64C52.482 144.707 51.9404 145.232 50.8739 145.215L30.5883 144.901C29.5218 144.884 28.9968 144.343 29.0133 143.276L29.323 123.311L24.0116 123.228L23.702 143.194C23.6854 144.26 23.1439 144.785 22.0773 144.769L1.79178 144.454Z" fill="black"/>
<path d="M16.7875 70.4C15.8062 70.4 14.9529 70.0373 14.2275 69.312L1.42755 56.512C0.744879 55.8293 0.403546 54.976 0.403546 53.952V16.448C0.403546 15.424 0.744879 14.5707 1.42755 13.888L14.2275 1.08799C14.9529 0.362658 15.8062 -7.62939e-06 16.7875 -7.62939e-06H36.2435C37.2249 -7.62939e-06 38.0782 0.362658 38.8035 1.08799L51.6035 13.888C52.2862 14.5707 52.6275 15.424 52.6275 16.448V53.952C52.6275 54.976 52.2862 55.8293 51.6035 56.512L38.8035 69.312C38.0782 70.0373 37.2249 70.4 36.2435 70.4H16.7875ZM26.3875 49.088H26.5155C27.3689 49.088 28.0302 48.8533 28.4995 48.384C28.9689 47.9147 29.2035 47.2533 29.2035 46.4V24C29.2035 23.1467 28.9689 22.4853 28.4995 22.016C28.0302 21.5467 27.3689 21.312 26.5155 21.312H26.3235C25.4702 21.312 24.8302 21.5467 24.4035 22.016C24.0195 22.4853 23.8275 23.1467 23.8275 24V46.4C23.8275 47.2533 24.0409 47.9147 24.4675 48.384C24.9369 48.8533 25.5769 49.088 26.3875 49.088Z" fill="black"/>
</svg>
