<svg width="118" height="211" viewBox="0 0 118 211" fill="none" xmlns="http://www.w3.org/2000/svg">
<path d="M15.1914 1.14873C15.9339 0.382905 16.688 0.37124 17.4539 1.11373L65.7007 47.8907C66.4665 48.6332 66.4782 49.3874 65.7357 50.1532L51.658 64.6732C50.9155 65.439 50.1614 65.4507 49.3955 64.7082L1.14874 17.9312C0.382923 17.1887 0.371258 16.4345 1.11375 15.6687L15.1914 1.14873ZM69.7722 53.6211C70.3662 53.0084 70.9695 52.9991 71.5822 53.5931L77.4177 59.2509C78.0304 59.8448 78.0397 60.4482 77.4457 61.0608L62.8335 76.1322C62.2989 76.6836 61.7253 76.6623 61.1126 76.0683L55.2771 70.4105C54.6644 69.8165 54.6254 69.2438 55.16 68.6924L69.7722 53.6211Z" fill="black"/>
<path d="M66.0836 209.575C65.0171 209.559 64.4921 209.017 64.5086 207.951L64.853 185.746C64.8583 185.404 64.8846 185.085 64.9319 184.787C65.0225 184.447 65.2194 184.13 65.5227 183.836L73.9459 177.246L73.9807 175.006L65.5749 168.091C65.2809 167.787 65.0936 167.486 65.0129 167.186C64.9755 166.844 64.9595 166.502 64.9647 166.161L65.3588 140.756C65.3753 139.689 65.9169 139.164 66.9834 139.181L87.205 139.495C88.2715 139.511 88.7965 140.053 88.78 141.119L88.4207 164.284L93.796 164.368L94.1553 141.203C94.1719 140.136 94.7134 139.611 95.7799 139.628L116.002 139.941C117.068 139.958 117.593 140.499 117.577 141.566L117.182 166.971C117.177 167.312 117.151 167.653 117.103 167.994C117.055 168.292 116.859 168.587 116.513 168.881L107.897 175.532L107.862 177.772L116.525 184.627C116.863 184.845 117.05 185.147 117.087 185.532C117.124 185.874 117.14 186.215 117.135 186.556L116.79 208.762C116.774 209.828 116.232 210.353 115.166 210.337L94.8801 210.022C93.8136 210.006 93.2886 209.464 93.3051 208.398L93.6148 188.432L88.3034 188.35L87.9938 208.315C87.9772 209.382 87.4357 209.907 86.3692 209.89L66.0836 209.575Z" fill="black"/>
<path d="M81.0794 135.521C80.098 135.521 79.2447 135.159 78.5194 134.433L65.7194 121.633C65.0367 120.951 64.6954 120.097 64.6954 119.073V81.5694C64.6954 80.5454 65.0367 79.6921 65.7194 79.0094L78.5194 66.2094C79.2447 65.4841 80.098 65.1214 81.0794 65.1214H100.535C101.517 65.1214 102.37 65.4841 103.095 66.2094L115.895 79.0094C116.578 79.6921 116.919 80.5454 116.919 81.5694V119.073C116.919 120.097 116.578 120.951 115.895 121.633L103.095 134.433C102.37 135.159 101.517 135.521 100.535 135.521H81.0794ZM90.6794 114.209H90.8074C91.6607 114.209 92.322 113.975 92.7914 113.505C93.2607 113.036 93.4954 112.375 93.4954 111.521V89.1214C93.4954 88.2681 93.2607 87.6067 92.7914 87.1374C92.322 86.6681 91.6607 86.4334 90.8074 86.4334H90.6154C89.762 86.4334 89.122 86.6681 88.6954 87.1374C88.3114 87.6067 88.1194 88.2681 88.1194 89.1214V111.521C88.1194 112.375 88.3327 113.036 88.7594 113.505C89.2287 113.975 89.8687 114.209 90.6794 114.209Z" fill="black"/>
</svg>
