<svg width="398" height="282" viewBox="0 0 398 282" fill="none" xmlns="http://www.w3.org/2000/svg">
<mask id="path-1-outside-1_3_998" maskUnits="userSpaceOnUse" x="99" y="92" width="200" height="109" fill="black">
<rect fill="white" x="99" y="92" width="200" height="109"/>
<path d="M102.288 199.2C101.221 199.2 100.688 198.667 100.688 197.6V111.2C100.688 110.133 101.221 109.6 102.288 109.6H118.8C119.568 109.6 120.272 109.963 120.912 110.688L124.112 113.888L127.312 110.688C128.037 109.963 128.891 109.6 129.872 109.6H136.528C137.509 109.6 138.363 109.963 139.088 110.688L151.888 123.488C152.571 124.171 152.912 125.024 152.912 126.048V163.552C152.912 164.576 152.571 165.429 151.888 166.112L139.088 178.912C138.363 179.637 137.509 180 136.528 180H129.872C128.891 180 128.037 179.637 127.312 178.912L124.112 175.712V197.6C124.112 198.667 123.579 199.2 122.512 199.2H102.288ZM124.112 158.688H126.8C127.653 158.688 128.315 158.453 128.784 157.984C129.253 157.515 129.488 156.853 129.488 156V133.6C129.488 132.747 129.275 132.085 128.848 131.616C128.421 131.147 127.781 130.912 126.928 130.912H126.672C125.861 130.912 125.221 131.147 124.752 131.616C124.325 132.085 124.112 132.747 124.112 133.6V158.688ZM159.913 180C158.846 180 158.313 179.467 158.313 178.4V111.2C158.313 110.133 158.846 109.6 159.913 109.6H180.137C181.204 109.6 181.737 110.133 181.737 111.2V178.4C181.737 179.467 181.204 180 180.137 180H159.913ZM159.593 104.288C158.74 104.288 158.313 103.861 158.313 103.008V94.88C158.313 94.0267 158.74 93.6 159.593 93.6H180.585C181.353 93.6 181.737 94.0267 181.737 94.88V103.008C181.737 103.861 181.353 104.288 180.585 104.288H159.593ZM188.855 180C187.788 180 187.255 179.467 187.255 178.4V156.192C187.255 155.851 187.276 155.531 187.319 155.232C187.404 154.891 187.596 154.571 187.895 154.272L196.215 147.552V145.312L187.703 138.528C187.404 138.229 187.212 137.931 187.127 137.632C187.084 137.291 187.063 136.949 187.063 136.608V111.2C187.063 110.133 187.596 109.6 188.663 109.6H208.887C209.954 109.6 210.487 110.133 210.487 111.2V134.368H215.863V111.2C215.863 110.133 216.396 109.6 217.463 109.6H237.687C238.754 109.6 239.287 110.133 239.287 111.2V136.608C239.287 136.949 239.266 137.291 239.223 137.632C239.18 137.931 238.988 138.229 238.647 138.528L230.135 145.312V147.552L238.903 154.272C239.244 154.485 239.436 154.784 239.479 155.168C239.522 155.509 239.543 155.851 239.543 156.192V178.4C239.543 179.467 239.01 180 237.943 180H217.655C216.588 180 216.055 179.467 216.055 178.4V158.432H210.743V178.4C210.743 179.467 210.21 180 209.143 180H188.855ZM261.322 180C260.341 180 259.487 179.637 258.762 178.912L245.962 166.112C245.279 165.429 244.938 164.576 244.938 163.552V126.048C244.938 125.024 245.279 124.171 245.962 123.488L258.762 110.688C259.487 109.963 260.341 109.6 261.322 109.6H280.778C281.759 109.6 282.613 109.963 283.338 110.688L296.138 123.488C296.821 124.171 297.162 125.024 297.162 126.048V163.552C297.162 164.576 296.821 165.429 296.138 166.112L283.338 178.912C282.613 179.637 281.759 180 280.778 180H261.322ZM270.922 158.688H271.05C271.903 158.688 272.565 158.453 273.034 157.984C273.503 157.515 273.738 156.853 273.738 156V133.6C273.738 132.747 273.503 132.085 273.034 131.616C272.565 131.147 271.903 130.912 271.05 130.912H270.858C270.005 130.912 269.365 131.147 268.938 131.616C268.554 132.085 268.362 132.747 268.362 133.6V156C268.362 156.853 268.575 157.515 269.002 157.984C269.471 158.453 270.111 158.688 270.922 158.688Z"/>
</mask>
<path d="M102.288 199.2C101.221 199.2 100.688 198.667 100.688 197.6V111.2C100.688 110.133 101.221 109.6 102.288 109.6H118.8C119.568 109.6 120.272 109.963 120.912 110.688L124.112 113.888L127.312 110.688C128.037 109.963 128.891 109.6 129.872 109.6H136.528C137.509 109.6 138.363 109.963 139.088 110.688L151.888 123.488C152.571 124.171 152.912 125.024 152.912 126.048V163.552C152.912 164.576 152.571 165.429 151.888 166.112L139.088 178.912C138.363 179.637 137.509 180 136.528 180H129.872C128.891 180 128.037 179.637 127.312 178.912L124.112 175.712V197.6C124.112 198.667 123.579 199.2 122.512 199.2H102.288ZM124.112 158.688H126.8C127.653 158.688 128.315 158.453 128.784 157.984C129.253 157.515 129.488 156.853 129.488 156V133.6C129.488 132.747 129.275 132.085 128.848 131.616C128.421 131.147 127.781 130.912 126.928 130.912H126.672C125.861 130.912 125.221 131.147 124.752 131.616C124.325 132.085 124.112 132.747 124.112 133.6V158.688ZM159.913 180C158.846 180 158.313 179.467 158.313 178.4V111.2C158.313 110.133 158.846 109.6 159.913 109.6H180.137C181.204 109.6 181.737 110.133 181.737 111.2V178.4C181.737 179.467 181.204 180 180.137 180H159.913ZM159.593 104.288C158.74 104.288 158.313 103.861 158.313 103.008V94.88C158.313 94.0267 158.74 93.6 159.593 93.6H180.585C181.353 93.6 181.737 94.0267 181.737 94.88V103.008C181.737 103.861 181.353 104.288 180.585 104.288H159.593ZM188.855 180C187.788 180 187.255 179.467 187.255 178.4V156.192C187.255 155.851 187.276 155.531 187.319 155.232C187.404 154.891 187.596 154.571 187.895 154.272L196.215 147.552V145.312L187.703 138.528C187.404 138.229 187.212 137.931 187.127 137.632C187.084 137.291 187.063 136.949 187.063 136.608V111.2C187.063 110.133 187.596 109.6 188.663 109.6H208.887C209.954 109.6 210.487 110.133 210.487 111.2V134.368H215.863V111.2C215.863 110.133 216.396 109.6 217.463 109.6H237.687C238.754 109.6 239.287 110.133 239.287 111.2V136.608C239.287 136.949 239.266 137.291 239.223 137.632C239.18 137.931 238.988 138.229 238.647 138.528L230.135 145.312V147.552L238.903 154.272C239.244 154.485 239.436 154.784 239.479 155.168C239.522 155.509 239.543 155.851 239.543 156.192V178.4C239.543 179.467 239.01 180 237.943 180H217.655C216.588 180 216.055 179.467 216.055 178.4V158.432H210.743V178.4C210.743 179.467 210.21 180 209.143 180H188.855ZM261.322 180C260.341 180 259.487 179.637 258.762 178.912L245.962 166.112C245.279 165.429 244.938 164.576 244.938 163.552V126.048C244.938 125.024 245.279 124.171 245.962 123.488L258.762 110.688C259.487 109.963 260.341 109.6 261.322 109.6H280.778C281.759 109.6 282.613 109.963 283.338 110.688L296.138 123.488C296.821 124.171 297.162 125.024 297.162 126.048V163.552C297.162 164.576 296.821 165.429 296.138 166.112L283.338 178.912C282.613 179.637 281.759 180 280.778 180H261.322ZM270.922 158.688H271.05C271.903 158.688 272.565 158.453 273.034 157.984C273.503 157.515 273.738 156.853 273.738 156V133.6C273.738 132.747 273.503 132.085 273.034 131.616C272.565 131.147 271.903 130.912 271.05 130.912H270.858C270.005 130.912 269.365 131.147 268.938 131.616C268.554 132.085 268.362 132.747 268.362 133.6V156C268.362 156.853 268.575 157.515 269.002 157.984C269.471 158.453 270.111 158.688 270.922 158.688Z" fill="white"/>
<path d="M120.912 110.688L120.162 111.35L120.183 111.373L120.205 111.395L120.912 110.688ZM124.112 113.888L123.405 114.595L124.112 115.302L124.819 114.595L124.112 113.888ZM127.312 110.688L126.605 109.981H126.605L127.312 110.688ZM139.088 110.688L139.795 109.981H139.795L139.088 110.688ZM151.888 166.112L152.595 166.819V166.819L151.888 166.112ZM139.088 178.912L139.795 179.619V179.619L139.088 178.912ZM127.312 178.912L128.019 178.205V178.205L127.312 178.912ZM124.112 175.712L124.819 175.005L123.112 173.298V175.712H124.112ZM124.112 158.688H123.112V159.688H124.112V158.688ZM128.784 157.984L129.491 158.691V158.691L128.784 157.984ZM124.752 131.616L124.045 130.909L124.028 130.926L124.012 130.943L124.752 131.616ZM102.288 199.2V198.2C101.909 198.2 101.808 198.106 101.795 198.093C101.782 198.08 101.688 197.979 101.688 197.6H100.688H99.688C99.688 198.287 99.8605 198.987 100.381 199.507C100.901 200.027 101.601 200.2 102.288 200.2V199.2ZM100.688 197.6H101.688V111.2H100.688H99.688V197.6H100.688ZM100.688 111.2H101.688C101.688 110.821 101.782 110.72 101.795 110.707C101.808 110.694 101.909 110.6 102.288 110.6V109.6V108.6C101.601 108.6 100.901 108.773 100.381 109.293C99.8605 109.813 99.688 110.513 99.688 111.2H100.688ZM102.288 109.6V110.6H118.8V109.6V108.6H102.288V109.6ZM118.8 109.6V110.6C119.21 110.6 119.659 110.779 120.162 111.35L120.912 110.688L121.662 110.026C120.885 109.146 119.926 108.6 118.8 108.6V109.6ZM120.912 110.688L120.205 111.395L123.405 114.595L124.112 113.888L124.819 113.181L121.619 109.981L120.912 110.688ZM124.112 113.888L124.819 114.595L128.019 111.395L127.312 110.688L126.605 109.981L123.405 113.181L124.112 113.888ZM127.312 110.688L128.019 111.395C128.566 110.848 129.169 110.6 129.872 110.6V109.6V108.6C128.612 108.6 127.508 109.077 126.605 109.981L127.312 110.688ZM129.872 109.6V110.6H136.528V109.6V108.6H129.872V109.6ZM136.528 109.6V110.6C137.231 110.6 137.834 110.848 138.381 111.395L139.088 110.688L139.795 109.981C138.892 109.077 137.788 108.6 136.528 108.6V109.6ZM139.088 110.688L138.381 111.395L151.181 124.195L151.888 123.488L152.595 122.781L139.795 109.981L139.088 110.688ZM151.888 123.488L151.181 124.195C151.664 124.678 151.912 125.271 151.912 126.048H152.912H153.912C153.912 124.777 153.478 123.663 152.595 122.781L151.888 123.488ZM152.912 126.048H151.912V163.552H152.912H153.912V126.048H152.912ZM152.912 163.552H151.912C151.912 164.329 151.664 164.922 151.181 165.405L151.888 166.112L152.595 166.819C153.478 165.937 153.912 164.823 153.912 163.552H152.912ZM151.888 166.112L151.181 165.405L138.381 178.205L139.088 178.912L139.795 179.619L152.595 166.819L151.888 166.112ZM139.088 178.912L138.381 178.205C137.834 178.752 137.231 179 136.528 179V180V181C137.788 181 138.892 180.523 139.795 179.619L139.088 178.912ZM136.528 180V179H129.872V180V181H136.528V180ZM129.872 180V179C129.169 179 128.566 178.752 128.019 178.205L127.312 178.912L126.605 179.619C127.508 180.523 128.612 181 129.872 181V180ZM127.312 178.912L128.019 178.205L124.819 175.005L124.112 175.712L123.405 176.419L126.605 179.619L127.312 178.912ZM124.112 175.712H123.112V197.6H124.112H125.112V175.712H124.112ZM124.112 197.6H123.112C123.112 197.979 123.018 198.08 123.005 198.093C122.992 198.106 122.891 198.2 122.512 198.2V199.2V200.2C123.199 200.2 123.899 200.027 124.419 199.507C124.939 198.987 125.112 198.287 125.112 197.6H124.112ZM122.512 199.2V198.2H102.288V199.2V200.2H122.512V199.2ZM124.112 158.688V159.688H126.8V158.688V157.688H124.112V158.688ZM126.8 158.688V159.688C127.839 159.688 128.785 159.397 129.491 158.691L128.784 157.984L128.077 157.277C127.845 157.509 127.467 157.688 126.8 157.688V158.688ZM128.784 157.984L129.491 158.691C130.197 157.985 130.488 157.039 130.488 156H129.488H128.488C128.488 156.667 128.309 157.045 128.077 157.277L128.784 157.984ZM129.488 156H130.488V133.6H129.488H128.488V156H129.488ZM129.488 133.6H130.488C130.488 132.585 130.233 131.652 129.588 130.943L128.848 131.616L128.108 132.289C128.317 132.518 128.488 132.908 128.488 133.6H129.488ZM128.848 131.616L129.588 130.943C128.913 130.201 127.961 129.912 126.928 129.912V130.912V131.912C127.601 131.912 127.93 132.093 128.108 132.289L128.848 131.616ZM126.928 130.912V129.912H126.672V130.912V131.912H126.928V130.912ZM126.672 130.912V129.912C125.659 129.912 124.742 130.212 124.045 130.909L124.752 131.616L125.459 132.323C125.701 132.081 126.064 131.912 126.672 131.912V130.912ZM124.752 131.616L124.012 130.943C123.367 131.652 123.112 132.585 123.112 133.6H124.112H125.112C125.112 132.908 125.283 132.518 125.492 132.289L124.752 131.616ZM124.112 133.6H123.112V158.688H124.112H125.112V133.6H124.112ZM159.913 180V179C159.534 179 159.433 178.906 159.42 178.893C159.407 178.88 159.313 178.779 159.313 178.4H158.313H157.313C157.313 179.087 157.486 179.787 158.006 180.307C158.526 180.827 159.226 181 159.913 181V180ZM158.313 178.4H159.313V111.2H158.313H157.313V178.4H158.313ZM158.313 111.2H159.313C159.313 110.821 159.407 110.72 159.42 110.707C159.433 110.694 159.534 110.6 159.913 110.6V109.6V108.6C159.226 108.6 158.526 108.773 158.006 109.293C157.486 109.813 157.313 110.513 157.313 111.2H158.313ZM159.913 109.6V110.6H180.137V109.6V108.6H159.913V109.6ZM180.137 109.6V110.6C180.516 110.6 180.617 110.694 180.63 110.707C180.643 110.72 180.737 110.821 180.737 111.2H181.737H182.737C182.737 110.513 182.564 109.813 182.044 109.293C181.524 108.773 180.824 108.6 180.137 108.6V109.6ZM181.737 111.2H180.737V178.4H181.737H182.737V111.2H181.737ZM181.737 178.4H180.737C180.737 178.779 180.643 178.88 180.63 178.893C180.617 178.906 180.516 179 180.137 179V180V181C180.824 181 181.524 180.827 182.044 180.307C182.564 179.787 182.737 179.087 182.737 178.4H181.737ZM180.137 180V179H159.913V180V181H180.137V180ZM159.593 104.288V103.288C159.32 103.288 159.3 103.221 159.34 103.261C159.38 103.301 159.313 103.281 159.313 103.008H158.313H157.313C157.313 103.589 157.459 104.208 157.926 104.675C158.393 105.142 159.012 105.288 159.593 105.288V104.288ZM158.313 103.008H159.313V94.88H158.313H157.313V103.008H158.313ZM158.313 94.88H159.313C159.313 94.6075 159.38 94.5868 159.34 94.6271C159.3 94.6674 159.32 94.6 159.593 94.6V93.6V92.6C159.012 92.6 158.393 92.7459 157.926 93.2129C157.459 93.6799 157.313 94.2992 157.313 94.88H158.313ZM159.593 93.6V94.6H180.585V93.6V92.6H159.593V93.6ZM180.585 93.6V94.6C180.687 94.6 180.733 94.6144 180.742 94.6177C180.745 94.6189 180.726 94.611 180.706 94.589C180.668 94.547 180.737 94.583 180.737 94.88H181.737H182.737C182.737 94.3237 182.614 93.7197 182.192 93.251C181.752 92.7623 181.152 92.6 180.585 92.6V93.6ZM181.737 94.88H180.737V103.008H181.737H182.737V94.88H181.737ZM181.737 103.008H180.737C180.737 103.305 180.668 103.341 180.706 103.299C180.726 103.277 180.745 103.269 180.742 103.27C180.733 103.274 180.687 103.288 180.585 103.288V104.288V105.288C181.152 105.288 181.752 105.126 182.192 104.637C182.614 104.168 182.737 103.564 182.737 103.008H181.737ZM180.585 104.288V103.288H159.593V104.288V105.288H180.585V104.288ZM187.319 155.232L186.349 154.989L186.336 155.04L186.329 155.091L187.319 155.232ZM187.895 154.272L187.267 153.494L187.225 153.527L187.188 153.565L187.895 154.272ZM196.215 147.552L196.843 148.33L197.215 148.03V147.552H196.215ZM196.215 145.312H197.215V144.83L196.838 144.53L196.215 145.312ZM187.703 138.528L186.996 139.235L187.036 139.275L187.08 139.31L187.703 138.528ZM187.127 137.632L186.135 137.756L186.144 137.833L186.165 137.907L187.127 137.632ZM210.487 134.368H209.487V135.368H210.487V134.368ZM215.863 134.368V135.368H216.863V134.368H215.863ZM239.223 137.632L240.213 137.773L240.214 137.765L240.215 137.756L239.223 137.632ZM238.647 138.528L239.27 139.31L239.288 139.296L239.306 139.281L238.647 138.528ZM230.135 145.312L229.512 144.53L229.135 144.83V145.312H230.135ZM230.135 147.552H229.135V148.045L229.527 148.346L230.135 147.552ZM238.903 154.272L238.295 155.066L238.333 155.095L238.373 155.12L238.903 154.272ZM239.479 155.168L238.485 155.278L238.487 155.292L239.479 155.168ZM216.055 158.432H217.055V157.432H216.055V158.432ZM210.743 158.432V157.432H209.743V158.432H210.743ZM188.855 180V179C188.476 179 188.375 178.906 188.362 178.893C188.349 178.88 188.255 178.779 188.255 178.4H187.255H186.255C186.255 179.087 186.428 179.787 186.948 180.307C187.468 180.827 188.168 181 188.855 181V180ZM187.255 178.4H188.255V156.192H187.255H186.255V178.4H187.255ZM187.255 156.192H188.255C188.255 155.892 188.274 155.62 188.309 155.373L187.319 155.232L186.329 155.091C186.279 155.442 186.255 155.809 186.255 156.192H187.255ZM187.319 155.232L188.289 155.475C188.322 155.341 188.406 155.175 188.602 154.979L187.895 154.272L187.188 153.565C186.787 153.966 186.486 154.44 186.349 154.989L187.319 155.232ZM187.895 154.272L188.523 155.05L196.843 148.33L196.215 147.552L195.587 146.774L187.267 153.494L187.895 154.272ZM196.215 147.552H197.215V145.312H196.215H195.215V147.552H196.215ZM196.215 145.312L196.838 144.53L188.326 137.746L187.703 138.528L187.08 139.31L195.592 146.094L196.215 145.312ZM187.703 138.528L188.41 137.821C188.19 137.601 188.113 137.444 188.089 137.357L187.127 137.632L186.165 137.907C186.311 138.417 186.618 138.858 186.996 139.235L187.703 138.528ZM187.127 137.632L188.119 137.508C188.082 137.207 188.063 136.908 188.063 136.608H187.063H186.063C186.063 136.991 186.087 137.374 186.135 137.756L187.127 137.632ZM187.063 136.608H188.063V111.2H187.063H186.063V136.608H187.063ZM187.063 111.2H188.063C188.063 110.821 188.157 110.72 188.17 110.707C188.183 110.694 188.284 110.6 188.663 110.6V109.6V108.6C187.976 108.6 187.276 108.773 186.756 109.293C186.236 109.813 186.063 110.513 186.063 111.2H187.063ZM188.663 109.6V110.6H208.887V109.6V108.6H188.663V109.6ZM208.887 109.6V110.6C209.266 110.6 209.367 110.694 209.38 110.707C209.393 110.72 209.487 110.821 209.487 111.2H210.487H211.487C211.487 110.513 211.314 109.813 210.794 109.293C210.274 108.773 209.574 108.6 208.887 108.6V109.6ZM210.487 111.2H209.487V134.368H210.487H211.487V111.2H210.487ZM210.487 134.368V135.368H215.863V134.368V133.368H210.487V134.368ZM215.863 134.368H216.863V111.2H215.863H214.863V134.368H215.863ZM215.863 111.2H216.863C216.863 110.821 216.957 110.72 216.97 110.707C216.983 110.694 217.084 110.6 217.463 110.6V109.6V108.6C216.776 108.6 216.076 108.773 215.556 109.293C215.036 109.813 214.863 110.513 214.863 111.2H215.863ZM217.463 109.6V110.6H237.687V109.6V108.6H217.463V109.6ZM237.687 109.6V110.6C238.066 110.6 238.167 110.694 238.18 110.707C238.193 110.72 238.287 110.821 238.287 111.2H239.287H240.287C240.287 110.513 240.114 109.813 239.594 109.293C239.074 108.773 238.374 108.6 237.687 108.6V109.6ZM239.287 111.2H238.287V136.608H239.287H240.287V111.2H239.287ZM239.287 136.608H238.287C238.287 136.908 238.268 137.207 238.231 137.508L239.223 137.632L240.215 137.756C240.263 137.374 240.287 136.991 240.287 136.608H239.287ZM239.223 137.632L238.233 137.491C238.238 137.458 238.237 137.558 237.988 137.775L238.647 138.528L239.306 139.281C239.739 138.901 240.123 138.403 240.213 137.773L239.223 137.632ZM238.647 138.528L238.024 137.746L229.512 144.53L230.135 145.312L230.758 146.094L239.27 139.31L238.647 138.528ZM230.135 145.312H229.135V147.552H230.135H231.135V145.312H230.135ZM230.135 147.552L229.527 148.346L238.295 155.066L238.903 154.272L239.511 153.478L230.743 146.758L230.135 147.552ZM238.903 154.272L238.373 155.12C238.435 155.159 238.456 155.187 238.462 155.197C238.467 155.205 238.479 155.226 238.485 155.278L239.479 155.168L240.473 155.058C240.395 154.355 240.021 153.791 239.433 153.424L238.903 154.272ZM239.479 155.168L238.487 155.292C238.524 155.593 238.543 155.892 238.543 156.192H239.543H240.543C240.543 155.809 240.519 155.426 240.471 155.044L239.479 155.168ZM239.543 156.192H238.543V178.4H239.543H240.543V156.192H239.543ZM239.543 178.4H238.543C238.543 178.779 238.449 178.88 238.436 178.893C238.423 178.906 238.322 179 237.943 179V180V181C238.63 181 239.33 180.827 239.85 180.307C240.37 179.787 240.543 179.087 240.543 178.4H239.543ZM237.943 180V179H217.655V180V181H237.943V180ZM217.655 180V179C217.276 179 217.175 178.906 217.162 178.893C217.149 178.88 217.055 178.779 217.055 178.4H216.055H215.055C215.055 179.087 215.228 179.787 215.748 180.307C216.268 180.827 216.968 181 217.655 181V180ZM216.055 178.4H217.055V158.432H216.055H215.055V178.4H216.055ZM216.055 158.432V157.432H210.743V158.432V159.432H216.055V158.432ZM210.743 158.432H209.743V178.4H210.743H211.743V158.432H210.743ZM210.743 178.4H209.743C209.743 178.779 209.649 178.88 209.636 178.893C209.623 178.906 209.522 179 209.143 179V180V181C209.83 181 210.53 180.827 211.05 180.307C211.57 179.787 211.743 179.087 211.743 178.4H210.743ZM209.143 180V179H188.855V180V181H209.143V180ZM258.762 178.912L259.469 178.205V178.205L258.762 178.912ZM245.962 166.112L245.255 166.819V166.819L245.962 166.112ZM245.962 123.488L246.669 124.195V124.195L245.962 123.488ZM258.762 110.688L258.055 109.981V109.981L258.762 110.688ZM283.338 110.688L284.045 109.981V109.981L283.338 110.688ZM296.138 166.112L296.845 166.819V166.819L296.138 166.112ZM283.338 178.912L284.045 179.619V179.619L283.338 178.912ZM273.034 157.984L273.741 158.691V158.691L273.034 157.984ZM273.034 131.616L273.741 130.909V130.909L273.034 131.616ZM268.938 131.616L268.198 130.943L268.181 130.963L268.164 130.983L268.938 131.616ZM269.002 157.984L268.262 158.657L268.278 158.674L268.295 158.691L269.002 157.984ZM261.322 180V179C260.619 179 260.016 178.752 259.469 178.205L258.762 178.912L258.055 179.619C258.958 180.523 260.062 181 261.322 181V180ZM258.762 178.912L259.469 178.205L246.669 165.405L245.962 166.112L245.255 166.819L258.055 179.619L258.762 178.912ZM245.962 166.112L246.669 165.405C246.186 164.922 245.938 164.329 245.938 163.552H244.938H243.938C243.938 164.823 244.372 165.937 245.255 166.819L245.962 166.112ZM244.938 163.552H245.938V126.048H244.938H243.938V163.552H244.938ZM244.938 126.048H245.938C245.938 125.271 246.186 124.678 246.669 124.195L245.962 123.488L245.255 122.781C244.372 123.663 243.938 124.777 243.938 126.048H244.938ZM245.962 123.488L246.669 124.195L259.469 111.395L258.762 110.688L258.055 109.981L245.255 122.781L245.962 123.488ZM258.762 110.688L259.469 111.395C260.016 110.848 260.619 110.6 261.322 110.6V109.6V108.6C260.062 108.6 258.958 109.077 258.055 109.981L258.762 110.688ZM261.322 109.6V110.6H280.778V109.6V108.6H261.322V109.6ZM280.778 109.6V110.6C281.481 110.6 282.084 110.848 282.631 111.395L283.338 110.688L284.045 109.981C283.142 109.077 282.038 108.6 280.778 108.6V109.6ZM283.338 110.688L282.631 111.395L295.431 124.195L296.138 123.488L296.845 122.781L284.045 109.981L283.338 110.688ZM296.138 123.488L295.431 124.195C295.914 124.678 296.162 125.271 296.162 126.048H297.162H298.162C298.162 124.777 297.728 123.663 296.845 122.781L296.138 123.488ZM297.162 126.048H296.162V163.552H297.162H298.162V126.048H297.162ZM297.162 163.552H296.162C296.162 164.329 295.914 164.922 295.431 165.405L296.138 166.112L296.845 166.819C297.728 165.937 298.162 164.823 298.162 163.552H297.162ZM296.138 166.112L295.431 165.405L282.631 178.205L283.338 178.912L284.045 179.619L296.845 166.819L296.138 166.112ZM283.338 178.912L282.631 178.205C282.084 178.752 281.481 179 280.778 179V180V181C282.038 181 283.142 180.523 284.045 179.619L283.338 178.912ZM280.778 180V179H261.322V180V181H280.778V180ZM270.922 158.688V159.688H271.05V158.688V157.688H270.922V158.688ZM271.05 158.688V159.688C272.089 159.688 273.035 159.397 273.741 158.691L273.034 157.984L272.327 157.277C272.095 157.509 271.717 157.688 271.05 157.688V158.688ZM273.034 157.984L273.741 158.691C274.447 157.985 274.738 157.039 274.738 156H273.738H272.738C272.738 156.667 272.559 157.045 272.327 157.277L273.034 157.984ZM273.738 156H274.738V133.6H273.738H272.738V156H273.738ZM273.738 133.6H274.738C274.738 132.561 274.447 131.615 273.741 130.909L273.034 131.616L272.327 132.323C272.559 132.555 272.738 132.933 272.738 133.6H273.738ZM273.034 131.616L273.741 130.909C273.035 130.203 272.089 129.912 271.05 129.912V130.912V131.912C271.717 131.912 272.095 132.091 272.327 132.323L273.034 131.616ZM271.05 130.912V129.912H270.858V130.912V131.912H271.05V130.912ZM270.858 130.912V129.912C269.825 129.912 268.873 130.201 268.198 130.943L268.938 131.616L269.678 132.289C269.856 132.093 270.185 131.912 270.858 131.912V130.912ZM268.938 131.616L268.164 130.983C267.584 131.691 267.362 132.608 267.362 133.6H268.362H269.362C269.362 132.885 269.524 132.479 269.712 132.249L268.938 131.616ZM268.362 133.6H267.362V156H268.362H269.362V133.6H268.362ZM268.362 156H267.362C267.362 157.015 267.617 157.948 268.262 158.657L269.002 157.984L269.742 157.311C269.533 157.082 269.362 156.692 269.362 156H268.362ZM269.002 157.984L268.295 158.691C268.992 159.388 269.909 159.688 270.922 159.688V158.688V157.688C270.314 157.688 269.951 157.519 269.709 157.277L269.002 157.984Z" fill="white" mask="url(#path-1-outside-1_3_998)"/>
</svg>
