<svg width="120" height="216" viewBox="0 0 120 216" fill="none" xmlns="http://www.w3.org/2000/svg">
<path d="M15.6191 1.11749C16.3825 0.372499 17.1367 0.381705 17.8817 1.1451L64.8158 49.2391C65.5607 50.0025 65.5515 50.7567 64.7881 51.5016L50.3142 65.6266C49.5508 66.3716 48.7966 66.3624 48.0516 65.599L1.11748 17.505C0.372491 16.7416 0.381696 15.9874 1.14509 15.2424L15.6191 1.11749ZM68.7272 55.0799C69.3379 54.4839 69.9413 54.4912 70.5373 55.102L76.214 60.919C76.81 61.5298 76.8027 62.1331 76.192 62.7291L61.1683 77.3904C60.6187 77.9268 60.0458 77.8896 59.4499 77.2789L53.7731 71.4618C53.1771 70.8511 53.1539 70.2776 53.7036 69.7412L68.7272 55.0799Z" fill="white"/>
<path d="M69.2765 215.368C68.2098 215.368 67.6765 214.834 67.6765 213.768V191.56C67.6765 191.218 67.6978 190.898 67.7405 190.6C67.8258 190.258 68.0178 189.938 68.3165 189.64L76.6365 182.92V180.68L68.1245 173.896C67.8258 173.597 67.6338 173.298 67.5485 173C67.5058 172.658 67.4845 172.317 67.4845 171.976V146.568C67.4845 145.501 68.0178 144.968 69.0845 144.968H89.3085C90.3752 144.968 90.9085 145.501 90.9085 146.568V169.736H96.2845V146.568C96.2845 145.501 96.8178 144.968 97.8845 144.968H118.108C119.175 144.968 119.708 145.501 119.708 146.568V171.976C119.708 172.317 119.687 172.658 119.644 173C119.602 173.298 119.41 173.597 119.068 173.896L110.556 180.68V182.92L119.324 189.64C119.666 189.853 119.858 190.152 119.9 190.536C119.943 190.877 119.964 191.218 119.964 191.56V213.768C119.964 214.834 119.431 215.368 118.364 215.368H98.0765C97.0098 215.368 96.4765 214.834 96.4765 213.768V193.8H91.1645V213.768C91.1645 214.834 90.6312 215.368 89.5645 215.368H69.2765Z" fill="white"/>
<path d="M82.8685 138.368C81.8872 138.368 81.0338 138.005 80.3085 137.28L67.5085 124.48C66.8258 123.797 66.4845 122.944 66.4845 121.92V84.4158C66.4845 83.3918 66.8258 82.5385 67.5085 81.8558L80.3085 69.0558C81.0338 68.3305 81.8872 67.9678 82.8685 67.9678H102.324C103.306 67.9678 104.159 68.3305 104.884 69.0558L117.684 81.8558C118.367 82.5385 118.708 83.3918 118.708 84.4158V121.92C118.708 122.944 118.367 123.797 117.684 124.48L104.884 137.28C104.159 138.005 103.306 138.368 102.324 138.368H82.8685ZM92.4685 117.056H92.5965C93.4498 117.056 94.1112 116.821 94.5805 116.352C95.0498 115.882 95.2845 115.221 95.2845 114.368V91.9678C95.2845 91.1145 95.0498 90.4531 94.5805 89.9838C94.1112 89.5145 93.4498 89.2798 92.5965 89.2798H92.4045C91.5512 89.2798 90.9112 89.5145 90.4845 89.9838C90.1005 90.4531 89.9085 91.1145 89.9085 91.9678V114.368C89.9085 115.221 90.1218 115.882 90.5485 116.352C91.0178 116.821 91.6578 117.056 92.4685 117.056Z" fill="white"/>
</svg>
